<svg width="1000" height="1000" xmlns="http://www.w3.org/2000/svg" version="1.1">


<!-- internal style sheet -->
<style type="text/css"><![CDATA[
 rect.background{fill:white}
 rect{fill:none; stroke:rgb(25,25,25); stroke-width:2}
 text{font-family:Helvetica; text-anchor:middle; fill:rgb(25,25,25)}
 line{stroke:rgb(25,25,25); stroke-width:4}
 path{fill:none; stroke:rgb(25,25,25); stroke-width:2}
 circle{fill:white; stroke:black; stroke-width:2}

 path.p0{fill:rgb(0,102,255); stroke:rgb(25,25,25); stroke-width:2}
 path.ps0{fill:rgb(0,77,191); stroke:rgb(20,20,20); stroke-width:2}
 rect.r0{fill:rgb(0,102,255); stroke:rgb(25,25,25); stroke-width:2}
 path.p1{fill:rgb(0,255,178); stroke:rgb(25,25,25); stroke-width:2}
 path.ps1{fill:rgb(0,191,134); stroke:rgb(20,20,20); stroke-width:2}
 rect.r1{fill:rgb(0,255,178); stroke:rgb(25,25,25); stroke-width:2}
 path.p2{fill:rgb(51,255,0); stroke:rgb(25,25,25); stroke-width:2}
 path.ps2{fill:rgb(38,191,0); stroke:rgb(20,20,20); stroke-width:2}
 rect.r2{fill:rgb(51,255,0); stroke:rgb(25,25,25); stroke-width:2}
 path.p3{fill:rgb(255,230,0); stroke:rgb(25,25,25); stroke-width:2}
 path.ps3{fill:rgb(191,173,0); stroke:rgb(20,20,20); stroke-width:2}
 rect.r3{fill:rgb(255,230,0); stroke:rgb(25,25,25); stroke-width:2}
 path.p4{fill:rgb(255,0,0); stroke:rgb(25,25,25); stroke-width:2}
 path.ps4{fill:rgb(191,0,0); stroke:rgb(20,20,20); stroke-width:2}
 rect.r4{fill:rgb(255,0,0); stroke:rgb(25,25,25); stroke-width:2}
]]></style>

 <rect class="background" width="1000" height="1000"/>
  <!-- cells -->
  <path class="p4" d="M 80 920 L 133 920 L 133 868 L 80 868 L 80 920"/>
  <line x1="80" y1="920" x2="80" y2="868"/>
  <line x1="80" y1="920" x2="133" y2="920"/>
  <path class="p4" d="M 133 920 L 185 920 L 185 868 L 133 868 L 133 920"/>
  <line x1="133" y1="920" x2="185" y2="920"/>
  <path class="p4" d="M 80 868 L 133 868 L 133 815 L 80 815 L 80 868"/>
  <line x1="80" y1="868" x2="80" y2="815"/>
  <path class="p4" d="M 133 868 L 185 868 L 185 815 L 133 815 L 133 868"/>
  <path class="p4" d="M 185 920 L 238 920 L 238 868 L 185 868 L 185 920"/>
  <line x1="185" y1="920" x2="238" y2="920"/>
  <path class="p4" d="M 238 920 L 290 920 L 290 868 L 238 868 L 238 920"/>
  <line x1="238" y1="920" x2="290" y2="920"/>
  <path class="p4" d="M 185 868 L 238 868 L 238 815 L 185 815 L 185 868"/>
  <path class="p4" d="M 238 868 L 290 868 L 290 815 L 238 815 L 238 868"/>
  <path class="p4" d="M 80 815 L 133 815 L 133 763 L 80 763 L 80 815"/>
  <line x1="80" y1="815" x2="80" y2="763"/>
  <path class="p4" d="M 133 815 L 185 815 L 185 763 L 133 763 L 133 815"/>
  <path class="p4" d="M 80 763 L 133 763 L 133 710 L 80 710 L 80 763"/>
  <line x1="80" y1="763" x2="80" y2="710"/>
  <path class="p4" d="M 133 763 L 185 763 L 185 710 L 133 710 L 133 763"/>
  <path class="p4" d="M 185 815 L 238 815 L 238 763 L 185 763 L 185 815"/>
  <path class="p4" d="M 238 815 L 290 815 L 290 763 L 238 763 L 238 815"/>
  <path class="p4" d="M 185 763 L 238 763 L 238 710 L 185 710 L 185 763"/>
  <path class="p4" d="M 238 763 L 290 763 L 290 710 L 238 710 L 238 763"/>
  <path class="p4" d="M 290 920 L 343 920 L 343 868 L 290 868 L 290 920"/>
  <line x1="290" y1="920" x2="343" y2="920"/>
  <path class="p4" d="M 343 920 L 395 920 L 395 868 L 343 868 L 343 920"/>
  <line x1="343" y1="920" x2="395" y2="920"/>
  <path class="p4" d="M 290 868 L 343 868 L 343 815 L 290 815 L 290 868"/>
  <path class="p4" d="M 343 868 L 395 868 L 395 815 L 343 815 L 343 868"/>
  <path class="p4" d="M 395 920 L 448 920 L 448 868 L 395 868 L 395 920"/>
  <line x1="395" y1="920" x2="448" y2="920"/>
  <path class="p4" d="M 448 920 L 500 920 L 500 868 L 448 868 L 448 920"/>
  <line x1="448" y1="920" x2="500" y2="920"/>
  <path class="p4" d="M 395 868 L 448 868 L 448 815 L 395 815 L 395 868"/>
  <path class="p4" d="M 448 868 L 500 868 L 500 815 L 448 815 L 448 868"/>
  <path class="p4" d="M 290 815 L 343 815 L 343 763 L 290 763 L 290 815"/>
  <path class="p4" d="M 343 815 L 395 815 L 395 763 L 343 763 L 343 815"/>
  <path class="p4" d="M 290 763 L 343 763 L 343 710 L 290 710 L 290 763"/>
  <path class="p4" d="M 343 763 L 395 763 L 395 710 L 343 710 L 343 763"/>
  <path class="p4" d="M 395 815 L 448 815 L 448 763 L 395 763 L 395 815"/>
  <path class="p4" d="M 448 815 L 500 815 L 500 763 L 448 763 L 448 815"/>
  <path class="p4" d="M 395 763 L 448 763 L 448 710 L 395 710 L 395 763"/>
  <path class="p4" d="M 448 763 L 500 763 L 500 710 L 448 710 L 448 763"/>
  <path class="p4" d="M 80 710 L 133 710 L 133 658 L 80 658 L 80 710"/>
  <line x1="80" y1="710" x2="80" y2="658"/>
  <path class="p4" d="M 133 710 L 185 710 L 185 658 L 133 658 L 133 710"/>
  <path class="p4" d="M 80 658 L 133 658 L 133 605 L 80 605 L 80 658"/>
  <line x1="80" y1="658" x2="80" y2="605"/>
  <path class="p4" d="M 133 658 L 185 658 L 185 605 L 133 605 L 133 658"/>
  <path class="p4" d="M 185 710 L 238 710 L 238 658 L 185 658 L 185 710"/>
  <path class="p4" d="M 238 710 L 290 710 L 290 658 L 238 658 L 238 710"/>
  <path class="p4" d="M 185 658 L 238 658 L 238 605 L 185 605 L 185 658"/>
  <path class="p4" d="M 238 658 L 290 658 L 290 605 L 238 605 L 238 658"/>
  <path class="p4" d="M 80 605 L 133 605 L 133 553 L 80 553 L 80 605"/>
  <line x1="80" y1="605" x2="80" y2="553"/>
  <path class="p4" d="M 133 605 L 185 605 L 185 553 L 133 553 L 133 605"/>
  <path class="p4" d="M 80 553 L 133 553 L 133 500 L 80 500 L 80 553"/>
  <line x1="80" y1="553" x2="80" y2="500"/>
  <path class="p4" d="M 133 553 L 185 553 L 185 500 L 133 500 L 133 553"/>
  <path class="p4" d="M 185 605 L 238 605 L 238 553 L 185 553 L 185 605"/>
  <path class="p4" d="M 238 605 L 290 605 L 290 553 L 238 553 L 238 605"/>
  <path class="p4" d="M 185 553 L 238 553 L 238 500 L 185 500 L 185 553"/>
  <path class="p4" d="M 238 553 L 290 553 L 290 500 L 238 500 L 238 553"/>
  <path class="p4" d="M 290 710 L 343 710 L 343 658 L 290 658 L 290 710"/>
  <path class="p4" d="M 343 710 L 395 710 L 395 658 L 343 658 L 343 710"/>
  <path class="p4" d="M 290 658 L 343 658 L 343 605 L 290 605 L 290 658"/>
  <path class="p4" d="M 343 658 L 395 658 L 395 605 L 343 605 L 343 658"/>
  <path class="p4" d="M 395 710 L 448 710 L 448 658 L 395 658 L 395 710"/>
  <path class="p4" d="M 448 710 L 500 710 L 500 658 L 448 658 L 448 710"/>
  <path class="p4" d="M 395 658 L 448 658 L 448 605 L 395 605 L 395 658"/>
  <path class="p4" d="M 448 658 L 500 658 L 500 605 L 448 605 L 448 658"/>
  <path class="p4" d="M 290 605 L 343 605 L 343 553 L 290 553 L 290 605"/>
  <path class="p4" d="M 343 605 L 395 605 L 395 553 L 343 553 L 343 605"/>
  <path class="p4" d="M 290 553 L 343 553 L 343 500 L 290 500 L 290 553"/>
  <path class="p4" d="M 343 553 L 395 553 L 395 500 L 343 500 L 343 553"/>
  <path class="p4" d="M 395 605 L 448 605 L 448 553 L 395 553 L 395 605"/>
  <path class="p4" d="M 448 605 L 500 605 L 500 553 L 448 553 L 448 605"/>
  <path class="p4" d="M 395 553 L 448 553 L 448 500 L 395 500 L 395 553"/>
  <path class="p4" d="M 448 553 L 500 553 L 500 500 L 448 500 L 448 553"/>
  <path class="p4" d="M 500 920 L 553 920 L 553 868 L 500 868 L 500 920"/>
  <line x1="500" y1="920" x2="553" y2="920"/>
  <path class="p4" d="M 553 920 L 605 920 L 605 868 L 553 868 L 553 920"/>
  <line x1="553" y1="920" x2="605" y2="920"/>
  <path class="p4" d="M 500 868 L 553 868 L 553 815 L 500 815 L 500 868"/>
  <path class="p4" d="M 553 868 L 605 868 L 605 815 L 553 815 L 553 868"/>
  <path class="p4" d="M 605 920 L 658 920 L 658 868 L 605 868 L 605 920"/>
  <line x1="605" y1="920" x2="658" y2="920"/>
  <path class="p4" d="M 658 920 L 710 920 L 710 868 L 658 868 L 658 920"/>
  <line x1="658" y1="920" x2="710" y2="920"/>
  <path class="p4" d="M 605 868 L 658 868 L 658 815 L 605 815 L 605 868"/>
  <path class="p4" d="M 658 868 L 710 868 L 710 815 L 658 815 L 658 868"/>
  <path class="p4" d="M 500 815 L 553 815 L 553 763 L 500 763 L 500 815"/>
  <path class="p4" d="M 553 815 L 605 815 L 605 763 L 553 763 L 553 815"/>
  <path class="p4" d="M 500 763 L 553 763 L 553 710 L 500 710 L 500 763"/>
  <path class="p4" d="M 553 763 L 605 763 L 605 710 L 553 710 L 553 763"/>
  <path class="p4" d="M 605 815 L 658 815 L 658 763 L 605 763 L 605 815"/>
  <path class="p4" d="M 658 815 L 710 815 L 710 763 L 658 763 L 658 815"/>
  <path class="p4" d="M 605 763 L 658 763 L 658 710 L 605 710 L 605 763"/>
  <path class="p4" d="M 658 763 L 710 763 L 710 710 L 658 710 L 658 763"/>
  <path class="p4" d="M 710 920 L 763 920 L 763 868 L 710 868 L 710 920"/>
  <line x1="710" y1="920" x2="763" y2="920"/>
  <path class="p4" d="M 763 920 L 815 920 L 815 868 L 763 868 L 763 920"/>
  <line x1="763" y1="920" x2="815" y2="920"/>
  <path class="p4" d="M 710 868 L 763 868 L 763 815 L 710 815 L 710 868"/>
  <path class="p4" d="M 763 868 L 815 868 L 815 815 L 763 815 L 763 868"/>
  <path class="p4" d="M 815 920 L 868 920 L 868 868 L 815 868 L 815 920"/>
  <line x1="815" y1="920" x2="868" y2="920"/>
  <path class="p4" d="M 868 920 L 920 920 L 920 868 L 868 868 L 868 920"/>
  <line x1="920" y1="920" x2="920" y2="868"/>
  <line x1="868" y1="920" x2="920" y2="920"/>
  <path class="p4" d="M 815 868 L 868 868 L 868 815 L 815 815 L 815 868"/>
  <path class="p4" d="M 868 868 L 920 868 L 920 815 L 868 815 L 868 868"/>
  <line x1="920" y1="868" x2="920" y2="815"/>
  <path class="p4" d="M 710 815 L 763 815 L 763 763 L 710 763 L 710 815"/>
  <path class="p4" d="M 763 815 L 815 815 L 815 763 L 763 763 L 763 815"/>
  <path class="p4" d="M 710 763 L 763 763 L 763 710 L 710 710 L 710 763"/>
  <path class="p4" d="M 763 763 L 815 763 L 815 710 L 763 710 L 763 763"/>
  <path class="p4" d="M 815 815 L 868 815 L 868 763 L 815 763 L 815 815"/>
  <path class="p4" d="M 868 815 L 920 815 L 920 763 L 868 763 L 868 815"/>
  <line x1="920" y1="815" x2="920" y2="763"/>
  <path class="p4" d="M 815 763 L 868 763 L 868 710 L 815 710 L 815 763"/>
  <path class="p4" d="M 868 763 L 920 763 L 920 710 L 868 710 L 868 763"/>
  <line x1="920" y1="763" x2="920" y2="710"/>
  <path class="p4" d="M 500 710 L 553 710 L 553 658 L 500 658 L 500 710"/>
  <path class="p4" d="M 553 710 L 605 710 L 605 658 L 553 658 L 553 710"/>
  <path class="p4" d="M 500 658 L 553 658 L 553 605 L 500 605 L 500 658"/>
  <path class="p4" d="M 553 658 L 605 658 L 605 605 L 553 605 L 553 658"/>
  <path class="p4" d="M 605 710 L 658 710 L 658 658 L 605 658 L 605 710"/>
  <path class="p4" d="M 658 710 L 710 710 L 710 658 L 658 658 L 658 710"/>
  <path class="p4" d="M 605 658 L 658 658 L 658 605 L 605 605 L 605 658"/>
  <path class="p4" d="M 658 658 L 710 658 L 710 605 L 658 605 L 658 658"/>
  <path class="p4" d="M 500 605 L 553 605 L 553 553 L 500 553 L 500 605"/>
  <path class="p4" d="M 553 605 L 605 605 L 605 553 L 553 553 L 553 605"/>
  <path class="p4" d="M 500 553 L 553 553 L 553 500 L 500 500 L 500 553"/>
  <path class="p4" d="M 553 553 L 605 553 L 605 500 L 553 500 L 553 553"/>
  <path class="p4" d="M 605 605 L 658 605 L 658 553 L 605 553 L 605 605"/>
  <path class="p4" d="M 658 605 L 710 605 L 710 553 L 658 553 L 658 605"/>
  <path class="p4" d="M 605 553 L 658 553 L 658 500 L 605 500 L 605 553"/>
  <path class="p4" d="M 658 553 L 710 553 L 710 500 L 658 500 L 658 553"/>
  <path class="p4" d="M 710 710 L 763 710 L 763 658 L 710 658 L 710 710"/>
  <path class="p4" d="M 763 710 L 815 710 L 815 658 L 763 658 L 763 710"/>
  <path class="p4" d="M 710 658 L 763 658 L 763 605 L 710 605 L 710 658"/>
  <path class="p4" d="M 763 658 L 815 658 L 815 605 L 763 605 L 763 658"/>
  <path class="p4" d="M 815 710 L 868 710 L 868 658 L 815 658 L 815 710"/>
  <path class="p4" d="M 868 710 L 920 710 L 920 658 L 868 658 L 868 710"/>
  <line x1="920" y1="710" x2="920" y2="658"/>
  <path class="p4" d="M 815 658 L 868 658 L 868 605 L 815 605 L 815 658"/>
  <path class="p4" d="M 868 658 L 920 658 L 920 605 L 868 605 L 868 658"/>
  <line x1="920" y1="658" x2="920" y2="605"/>
  <path class="p4" d="M 710 605 L 763 605 L 763 553 L 710 553 L 710 605"/>
  <path class="p4" d="M 763 605 L 815 605 L 815 553 L 763 553 L 763 605"/>
  <path class="p4" d="M 710 553 L 763 553 L 763 500 L 710 500 L 710 553"/>
  <path class="p4" d="M 763 553 L 815 553 L 815 500 L 763 500 L 763 553"/>
  <path class="p4" d="M 815 605 L 868 605 L 868 553 L 815 553 L 815 605"/>
  <path class="p4" d="M 868 605 L 920 605 L 920 553 L 868 553 L 868 605"/>
  <line x1="920" y1="605" x2="920" y2="553"/>
  <path class="p4" d="M 815 553 L 868 553 L 868 500 L 815 500 L 815 553"/>
  <path class="p4" d="M 868 553 L 920 553 L 920 500 L 868 500 L 868 553"/>
  <line x1="920" y1="553" x2="920" y2="500"/>
  <path class="p4" d="M 80 500 L 133 500 L 133 448 L 80 448 L 80 500"/>
  <line x1="80" y1="500" x2="80" y2="448"/>
  <path class="p4" d="M 133 500 L 185 500 L 185 448 L 133 448 L 133 500"/>
  <path class="p4" d="M 80 448 L 133 448 L 133 395 L 80 395 L 80 448"/>
  <line x1="80" y1="448" x2="80" y2="395"/>
  <path class="p4" d="M 133 448 L 185 448 L 185 395 L 133 395 L 133 448"/>
  <path class="p4" d="M 185 500 L 238 500 L 238 448 L 185 448 L 185 500"/>
  <path class="p4" d="M 238 500 L 290 500 L 290 448 L 238 448 L 238 500"/>
  <path class="p4" d="M 185 448 L 238 448 L 238 395 L 185 395 L 185 448"/>
  <path class="p4" d="M 238 448 L 290 448 L 290 395 L 238 395 L 238 448"/>
  <path class="p4" d="M 80 395 L 133 395 L 133 343 L 80 343 L 80 395"/>
  <line x1="80" y1="395" x2="80" y2="343"/>
  <path class="p4" d="M 133 395 L 185 395 L 185 343 L 133 343 L 133 395"/>
  <path class="p4" d="M 80 343 L 133 343 L 133 290 L 80 290 L 80 343"/>
  <line x1="80" y1="343" x2="80" y2="290"/>
  <path class="p4" d="M 133 343 L 185 343 L 185 290 L 133 290 L 133 343"/>
  <path class="p4" d="M 185 395 L 238 395 L 238 343 L 185 343 L 185 395"/>
  <path class="p4" d="M 238 395 L 290 395 L 290 343 L 238 343 L 238 395"/>
  <path class="p4" d="M 185 343 L 238 343 L 238 290 L 185 290 L 185 343"/>
  <path class="p4" d="M 238 343 L 290 343 L 290 290 L 238 290 L 238 343"/>
  <path class="p4" d="M 290 500 L 343 500 L 343 448 L 290 448 L 290 500"/>
  <path class="p4" d="M 343 500 L 395 500 L 395 448 L 343 448 L 343 500"/>
  <path class="p4" d="M 290 448 L 343 448 L 343 395 L 290 395 L 290 448"/>
  <path class="p4" d="M 343 448 L 395 448 L 395 395 L 343 395 L 343 448"/>
  <path class="p4" d="M 395 500 L 448 500 L 448 448 L 395 448 L 395 500"/>
  <path class="p4" d="M 448 500 L 500 500 L 500 448 L 448 448 L 448 500"/>
  <path class="p4" d="M 395 448 L 448 448 L 448 395 L 395 395 L 395 448"/>
  <path class="p4" d="M 448 448 L 500 448 L 500 395 L 448 395 L 448 448"/>
  <path class="p4" d="M 290 395 L 343 395 L 343 343 L 290 343 L 290 395"/>
  <path class="p4" d="M 343 395 L 395 395 L 395 343 L 343 343 L 343 395"/>
  <path class="p4" d="M 290 343 L 343 343 L 343 290 L 290 290 L 290 343"/>
  <path class="p4" d="M 343 343 L 395 343 L 395 290 L 343 290 L 343 343"/>
  <path class="p4" d="M 395 395 L 448 395 L 448 343 L 395 343 L 395 395"/>
  <path class="p4" d="M 448 395 L 500 395 L 500 343 L 448 343 L 448 395"/>
  <path class="p4" d="M 395 343 L 448 343 L 448 290 L 395 290 L 395 343"/>
  <path class="p4" d="M 448 343 L 500 343 L 500 290 L 448 290 L 448 343"/>
  <path class="p4" d="M 80 290 L 133 290 L 133 238 L 80 238 L 80 290"/>
  <line x1="80" y1="290" x2="80" y2="238"/>
  <path class="p4" d="M 133 290 L 185 290 L 185 238 L 133 238 L 133 290"/>
  <path class="p4" d="M 80 238 L 133 238 L 133 185 L 80 185 L 80 238"/>
  <line x1="80" y1="238" x2="80" y2="185"/>
  <path class="p4" d="M 133 238 L 185 238 L 185 185 L 133 185 L 133 238"/>
  <path class="p4" d="M 185 290 L 238 290 L 238 238 L 185 238 L 185 290"/>
  <path class="p4" d="M 238 290 L 290 290 L 290 238 L 238 238 L 238 290"/>
  <path class="p4" d="M 185 238 L 238 238 L 238 185 L 185 185 L 185 238"/>
  <path class="p4" d="M 238 238 L 290 238 L 290 185 L 238 185 L 238 238"/>
  <path class="p4" d="M 80 185 L 133 185 L 133 133 L 80 133 L 80 185"/>
  <line x1="80" y1="185" x2="80" y2="133"/>
  <path class="p4" d="M 133 185 L 185 185 L 185 133 L 133 133 L 133 185"/>
  <path class="p4" d="M 80 133 L 133 133 L 133 80 L 80 80 L 80 133"/>
  <line x1="80" y1="133" x2="80" y2="80"/>
  <line x1="80" y1="80" x2="133" y2="80"/>
  <path class="p4" d="M 133 133 L 185 133 L 185 80 L 133 80 L 133 133"/>
  <line x1="133" y1="80" x2="185" y2="80"/>
  <path class="p4" d="M 185 185 L 238 185 L 238 133 L 185 133 L 185 185"/>
  <path class="p4" d="M 238 185 L 290 185 L 290 133 L 238 133 L 238 185"/>
  <path class="p4" d="M 185 133 L 238 133 L 238 80 L 185 80 L 185 133"/>
  <line x1="185" y1="80" x2="238" y2="80"/>
  <path class="p4" d="M 238 133 L 290 133 L 290 80 L 238 80 L 238 133"/>
  <line x1="238" y1="80" x2="290" y2="80"/>
  <path class="p4" d="M 290 290 L 343 290 L 343 238 L 290 238 L 290 290"/>
  <path class="p4" d="M 343 290 L 395 290 L 395 238 L 343 238 L 343 290"/>
  <path class="p4" d="M 290 238 L 343 238 L 343 185 L 290 185 L 290 238"/>
  <path class="p4" d="M 343 238 L 395 238 L 395 185 L 343 185 L 343 238"/>
  <path class="p4" d="M 395 290 L 448 290 L 448 238 L 395 238 L 395 290"/>
  <path class="p4" d="M 448 290 L 500 290 L 500 238 L 448 238 L 448 290"/>
  <path class="p4" d="M 395 238 L 448 238 L 448 185 L 395 185 L 395 238"/>
  <path class="p4" d="M 448 238 L 500 238 L 500 185 L 448 185 L 448 238"/>
  <path class="p4" d="M 290 185 L 343 185 L 343 133 L 290 133 L 290 185"/>
  <path class="p4" d="M 343 185 L 395 185 L 395 133 L 343 133 L 343 185"/>
  <path class="p4" d="M 290 133 L 343 133 L 343 80 L 290 80 L 290 133"/>
  <line x1="290" y1="80" x2="343" y2="80"/>
  <path class="p4" d="M 343 133 L 395 133 L 395 80 L 343 80 L 343 133"/>
  <line x1="343" y1="80" x2="395" y2="80"/>
  <path class="p4" d="M 395 185 L 448 185 L 448 133 L 395 133 L 395 185"/>
  <path class="p4" d="M 448 185 L 500 185 L 500 133 L 448 133 L 448 185"/>
  <path class="p4" d="M 395 133 L 448 133 L 448 80 L 395 80 L 395 133"/>
  <line x1="395" y1="80" x2="448" y2="80"/>
  <path class="p4" d="M 448 133 L 500 133 L 500 80 L 448 80 L 448 133"/>
  <line x1="448" y1="80" x2="500" y2="80"/>
  <path class="p4" d="M 500 500 L 553 500 L 553 448 L 500 448 L 500 500"/>
  <path class="p4" d="M 553 500 L 605 500 L 605 448 L 553 448 L 553 500"/>
  <path class="p4" d="M 500 448 L 553 448 L 553 395 L 500 395 L 500 448"/>
  <path class="p4" d="M 553 448 L 605 448 L 605 395 L 553 395 L 553 448"/>
  <path class="p4" d="M 605 500 L 658 500 L 658 448 L 605 448 L 605 500"/>
  <path class="p4" d="M 658 500 L 710 500 L 710 448 L 658 448 L 658 500"/>
  <path class="p4" d="M 605 448 L 658 448 L 658 395 L 605 395 L 605 448"/>
  <path class="p4" d="M 658 448 L 710 448 L 710 395 L 658 395 L 658 448"/>
  <path class="p4" d="M 500 395 L 553 395 L 553 343 L 500 343 L 500 395"/>
  <path class="p4" d="M 553 395 L 605 395 L 605 343 L 553 343 L 553 395"/>
  <path class="p4" d="M 500 343 L 553 343 L 553 290 L 500 290 L 500 343"/>
  <path class="p4" d="M 553 343 L 605 343 L 605 290 L 553 290 L 553 343"/>
  <path class="p4" d="M 605 395 L 658 395 L 658 343 L 605 343 L 605 395"/>
  <path class="p4" d="M 658 395 L 710 395 L 710 343 L 658 343 L 658 395"/>
  <path class="p4" d="M 605 343 L 658 343 L 658 290 L 605 290 L 605 343"/>
  <path class="p4" d="M 658 343 L 710 343 L 710 290 L 658 290 L 658 343"/>
  <path class="p4" d="M 710 500 L 763 500 L 763 448 L 710 448 L 710 500"/>
  <path class="p4" d="M 763 500 L 815 500 L 815 448 L 763 448 L 763 500"/>
  <path class="p4" d="M 710 448 L 763 448 L 763 395 L 710 395 L 710 448"/>
  <path class="p4" d="M 763 448 L 815 448 L 815 395 L 763 395 L 763 448"/>
  <path class="p4" d="M 815 500 L 868 500 L 868 448 L 815 448 L 815 500"/>
  <path class="p4" d="M 868 500 L 920 500 L 920 448 L 868 448 L 868 500"/>
  <line x1="920" y1="500" x2="920" y2="448"/>
  <path class="p4" d="M 815 448 L 868 448 L 868 395 L 815 395 L 815 448"/>
  <path class="p4" d="M 868 448 L 920 448 L 920 395 L 868 395 L 868 448"/>
  <line x1="920" y1="448" x2="920" y2="395"/>
  <path class="p4" d="M 710 395 L 763 395 L 763 343 L 710 343 L 710 395"/>
  <path class="p4" d="M 763 395 L 815 395 L 815 343 L 763 343 L 763 395"/>
  <path class="p4" d="M 710 343 L 763 343 L 763 290 L 710 290 L 710 343"/>
  <path class="p4" d="M 763 343 L 815 343 L 815 290 L 763 290 L 763 343"/>
  <path class="p4" d="M 815 395 L 868 395 L 868 343 L 815 343 L 815 395"/>
  <path class="p4" d="M 868 395 L 920 395 L 920 343 L 868 343 L 868 395"/>
  <line x1="920" y1="395" x2="920" y2="343"/>
  <path class="p4" d="M 815 343 L 868 343 L 868 290 L 815 290 L 815 343"/>
  <path class="p4" d="M 868 343 L 920 343 L 920 290 L 868 290 L 868 343"/>
  <line x1="920" y1="343" x2="920" y2="290"/>
  <path class="p4" d="M 500 290 L 553 290 L 553 238 L 500 238 L 500 290"/>
  <path class="p4" d="M 553 290 L 605 290 L 605 238 L 553 238 L 553 290"/>
  <path class="p4" d="M 500 238 L 553 238 L 553 185 L 500 185 L 500 238"/>
  <path class="p4" d="M 553 238 L 605 238 L 605 185 L 553 185 L 553 238"/>
  <path class="p4" d="M 605 290 L 658 290 L 658 238 L 605 238 L 605 290"/>
  <path class="p4" d="M 658 290 L 710 290 L 710 238 L 658 238 L 658 290"/>
  <path class="p4" d="M 605 238 L 658 238 L 658 185 L 605 185 L 605 238"/>
  <path class="p4" d="M 658 238 L 710 238 L 710 185 L 658 185 L 658 238"/>
  <path class="p4" d="M 500 185 L 553 185 L 553 133 L 500 133 L 500 185"/>
  <path class="p4" d="M 553 185 L 605 185 L 605 133 L 553 133 L 553 185"/>
  <path class="p4" d="M 500 133 L 553 133 L 553 80 L 500 80 L 500 133"/>
  <line x1="500" y1="80" x2="553" y2="80"/>
  <path class="p4" d="M 553 133 L 605 133 L 605 80 L 553 80 L 553 133"/>
  <line x1="553" y1="80" x2="605" y2="80"/>
  <path class="p4" d="M 605 185 L 658 185 L 658 133 L 605 133 L 605 185"/>
  <path class="p4" d="M 658 185 L 710 185 L 710 133 L 658 133 L 658 185"/>
  <path class="p4" d="M 605 133 L 658 133 L 658 80 L 605 80 L 605 133"/>
  <line x1="605" y1="80" x2="658" y2="80"/>
  <path class="p4" d="M 658 133 L 710 133 L 710 80 L 658 80 L 658 133"/>
  <line x1="658" y1="80" x2="710" y2="80"/>
  <path class="p4" d="M 710 290 L 763 290 L 763 238 L 710 238 L 710 290"/>
  <path class="p4" d="M 763 290 L 815 290 L 815 238 L 763 238 L 763 290"/>
  <path class="p4" d="M 710 238 L 763 238 L 763 185 L 710 185 L 710 238"/>
  <path class="p4" d="M 763 238 L 815 238 L 815 185 L 763 185 L 763 238"/>
  <path class="p4" d="M 815 290 L 868 290 L 868 238 L 815 238 L 815 290"/>
  <path class="p4" d="M 868 290 L 920 290 L 920 238 L 868 238 L 868 290"/>
  <line x1="920" y1="290" x2="920" y2="238"/>
  <path class="p4" d="M 815 238 L 868 238 L 868 185 L 815 185 L 815 238"/>
  <path class="p4" d="M 868 238 L 920 238 L 920 185 L 868 185 L 868 238"/>
  <line x1="920" y1="238" x2="920" y2="185"/>
  <path class="p4" d="M 710 185 L 763 185 L 763 133 L 710 133 L 710 185"/>
  <path class="p4" d="M 763 185 L 815 185 L 815 133 L 763 133 L 763 185"/>
  <path class="p4" d="M 710 133 L 763 133 L 763 80 L 710 80 L 710 133"/>
  <line x1="710" y1="80" x2="763" y2="80"/>
  <path class="p4" d="M 763 133 L 815 133 L 815 80 L 763 80 L 763 133"/>
  <line x1="763" y1="80" x2="815" y2="80"/>
  <path class="p4" d="M 815 185 L 868 185 L 868 133 L 815 133 L 815 185"/>
  <path class="p4" d="M 868 185 L 920 185 L 920 133 L 868 133 L 868 185"/>
  <line x1="920" y1="185" x2="920" y2="133"/>
  <path class="p4" d="M 815 133 L 868 133 L 868 80 L 815 80 L 815 133"/>
  <line x1="815" y1="80" x2="868" y2="80"/>
  <path class="p4" d="M 868 133 L 920 133 L 920 80 L 868 80 L 868 133"/>
  <line x1="920" y1="133" x2="920" y2="80"/>
  <line x1="868" y1="80" x2="920" y2="80"/>

</svg>